<svg id="Ebene_1" data-name="Ebene 1" xmlns="http://www.w3.org/2000/svg" viewBox="0 0 390.88 318.61"><defs><style>.cls-1,.cls-2{fill:none;stroke-width:0.3px;}.cls-1{stroke:#e06138;}.cls-2{stroke:#154836;}.cls-3{fill:#e06138;}.cls-4{fill:#154836;}</style></defs><path class="cls-1" d="M305,97.28c7.17,4.93,18.41,2.47,26.08.54s14.46-5.34,21-9.34S363.47,79.38,368,73.3a60.33,60.33,0,0,0,9.95-20.42c1.89-7.27,4.49-18.73,4.39-26s4.64-23.53-3.7-26-19.15,2.27-27.23,2.68-16.4,4.71-23.57,7.5S315.69,18.63,310,23.59s-9.24,11.34-12.65,17.72-6.21,17.43-6.86,24.21-3.19,22.62,3.41,25.6S305.14,80.8,310,77.44s9.61-11.77,14.84-15.54S335,49.67,340.88,49C331.14,66.41,316,80.79,305,97.28Z"/><path class="cls-2" d="M269.78,86.93c1.09-7.44-1.46-16.17,0-23.47s2.14-13.73-5.48-15.24-12.1-3.33-18.68-4.78-16.22.78-17.41-6.06-3-10.9-7.62-15.86-8.17-6.85-14.27-9.2-14.08-1.31-20.07.75-10,4.16-14.55,8.91-5.24,10.41-7,16.47-13.12,3.23-18.48,5-13.14,2.71-18.64,4.83-11.42,3.46-16.79,6-10.56,4.54-15.61,7.86S85.6,67,80.8,71.22,73.16,77,68.72,82.61s7.15,4.5,14,4.32,16.1.08,23.47,0,15.85,0,23.47,0,15.74,0,23.47,0,15.7,0,23.47,0,15.69,0,23.47,0,15.7,0,23.48,0h46.25Z"/><path class="cls-2" d="M269.78,110.4c-11.75,0-23.45,0-35.21,0s-23.43.06-35.21,0-23.38.11-35.2,0-23.29.25-35.21,0-23.06.55-35.21,0-22.55,1.22-35.2,0-14.07,12.14-12.43,22.78c-12.85,3.22-32.9-6.37-42.63,5S7,165.07,22,160.8s26.84,8.76,24.16,23.47,1.33,32.67,0,46.94.57,30.29,5.57,42.06,9.76,19.15,19.49,27.46,18.49,13.18,31.55,16.08,31,1,45.56,1.38,32.76-.07,47.63,0,32.35.19,46.94,0,32.74,1.33,45.79-1.84,21.33-7.35,31-15.93,15.1-15.7,20-27.64,6.9-27.12,5.37-41.57,2.61-32.85,0-47.63,9.39-27.1,24.17-22.78,28-12,18.12-23-29.54-1.37-42.29-4.66c.61-7.36,1.79-23.09-8.28-22.78s-21.9-1-30.91.15-10.63,9.07-16.19,14.19-8.72,11.82-13.82,17.24-9.19,10.76-13.81,16.57-10.31,14.15-8.8,22.26,2.11,18.78-1.44,26.18-7.61,12.22-12.88,18.18-9.58,10.44-14.5,16.57-8.87,9.86-14.15,16.22-8.68,9.49-14.16,16.91-17-1.43-11.39-8.63,9.08-10.62,13.78-17.29,9.53-10.36,13.15-17.22,13.36-10,11.88-19.14-14.88-2.92-17.72,3.64-9.92,10.81-13.49,16.88-10.54,11.18-13.81,17.26-12.69,14-16.55,5.84,5.53-12.77,9.65-19,8.76-10.4,14-16.34,7.1-11.24,13.93-17.14-.19-17.09-7.6-11.05-8.07,10.34-14.15,16.23-8.17,11-14.38,16.68-6.6,10.73-14,16.41-14.43-8.49-7.9-14.11,8.1-11.13,13.43-17,8.45-11.72,13.49-17.57,8.74-11.5,13.46-17.6,8.59-10.62,15.31-15.07,18.13-4.73,26.13-4.93,14.08-6,19-11.41,9.63-11.25,14.11-17S265.3,116.14,269.78,110.4Z"/><path class="cls-3" d="M305,97.28c7.17,4.93,18.41,2.47,26.08.54s14.46-5.34,21-9.34S363.47,79.38,368,73.3a60.33,60.33,0,0,0,9.95-20.42c1.89-7.27,4.49-18.73,4.39-26s4.64-23.53-3.7-26-19.15,2.27-27.23,2.68-16.4,4.71-23.57,7.5S315.69,18.63,310,23.59s-9.24,11.34-12.65,17.72-6.21,17.43-6.86,24.21-3.19,22.62,3.41,25.6S305.14,80.8,310,77.44s9.61-11.77,14.84-15.54S335,49.67,340.88,49C331.14,66.41,316,80.79,305,97.28Z"/><path class="cls-4" d="M269.78,86.93c1.09-7.44-1.46-16.17,0-23.47s2.14-13.73-5.48-15.24-12.1-3.33-18.68-4.78-16.22.78-17.41-6.06-3-10.9-7.62-15.86-8.17-6.85-14.27-9.2-14.08-1.31-20.07.75-10,4.16-14.55,8.91-5.24,10.41-7,16.47-13.12,3.23-18.48,5-13.14,2.71-18.64,4.83-11.42,3.46-16.79,6-10.56,4.54-15.61,7.86S85.6,67,80.8,71.22,73.16,77,68.72,82.61s7.15,4.5,14,4.32,16.1.08,23.47,0,15.85,0,23.47,0,15.74,0,23.47,0,15.7,0,23.47,0,15.69,0,23.47,0,15.7,0,23.48,0h46.25Z"/><path class="cls-4" d="M269.78,110.4c-11.75,0-23.45,0-35.21,0s-23.43.06-35.21,0-23.38.11-35.2,0-23.29.25-35.21,0-23.06.55-35.21,0-22.55,1.22-35.2,0-14.07,12.14-12.43,22.78c-12.85,3.22-32.9-6.37-42.63,5S7,165.07,22,160.8s26.84,8.76,24.16,23.47,1.33,32.67,0,46.94.57,30.29,5.57,42.06,9.76,19.15,19.49,27.46,18.49,13.18,31.55,16.08,31,1,45.56,1.38,32.76-.07,47.63,0,32.35.19,46.94,0,32.74,1.33,45.79-1.84,21.33-7.35,31-15.93,15.1-15.7,20-27.64,6.9-27.12,5.37-41.57,2.61-32.85,0-47.63,9.39-27.1,24.17-22.78,28-12,18.12-23-29.54-1.37-42.29-4.66c.61-7.36,1.79-23.09-8.28-22.78s-21.9-1-30.91.15-10.63,9.07-16.19,14.19-8.72,11.82-13.82,17.24-9.19,10.76-13.81,16.57-10.31,14.15-8.8,22.26,2.11,18.78-1.44,26.18-7.61,12.22-12.88,18.18-9.58,10.44-14.5,16.57-8.87,9.86-14.15,16.22-8.68,9.49-14.16,16.91-17-1.43-11.39-8.63,9.08-10.62,13.78-17.29,9.53-10.36,13.15-17.22,13.36-10,11.88-19.14-14.88-2.92-17.72,3.64-9.92,10.81-13.49,16.88-10.54,11.18-13.81,17.26-12.69,14-16.55,5.84,5.53-12.77,9.65-19,8.76-10.4,14-16.34,7.1-11.24,13.93-17.14-.19-17.09-7.6-11.05-8.07,10.34-14.15,16.23-8.17,11-14.38,16.68-6.6,10.73-14,16.41-14.43-8.49-7.9-14.11,8.1-11.13,13.43-17,8.45-11.72,13.49-17.57,8.74-11.5,13.46-17.6,8.59-10.62,15.31-15.07,18.13-4.73,26.13-4.93,14.08-6,19-11.41,9.63-11.25,14.11-17S265.3,116.14,269.78,110.4Z"/></svg>