<svg id="Ebene_1" data-name="Ebene 1" xmlns="http://www.w3.org/2000/svg" viewBox="0 0 1396.49 318.61"><defs><style>.cls-1,.cls-2,.cls-3{fill:none;stroke-width:0.3px;}.cls-1{stroke:var(--color1);}.cls-2{stroke:var(--color2);}.cls-3{stroke:var(--color3);}.cls-4{fill:var(--color4);}.cls-5{fill:var(--color5);}</style></defs><path class="cls-1" d="M305,97.28c7.17,4.93,18.41,2.47,26.08.54s14.46-5.34,21-9.34S363.47,79.38,368,73.3a60.33,60.33,0,0,0,9.95-20.42c1.89-7.27,4.49-18.73,4.39-26s4.64-23.53-3.7-26-19.15,2.27-27.23,2.68-16.4,4.71-23.57,7.5S315.69,18.63,310,23.59s-9.24,11.34-12.65,17.72-6.21,17.43-6.86,24.21-3.19,22.62,3.41,25.6S305.14,80.8,310,77.44s9.61-11.77,14.84-15.54S335,49.67,340.88,49C331.14,66.41,316,80.79,305,97.28Z"/><path class="cls-2" d="M269.78,86.93c1.09-7.44-1.46-16.17,0-23.47s2.14-13.73-5.48-15.24-12.1-3.33-18.68-4.78-16.22.78-17.41-6.06-3-10.9-7.62-15.86-8.17-6.85-14.27-9.2-14.08-1.31-20.07.75-10,4.16-14.55,8.91-5.24,10.41-7,16.47-13.12,3.23-18.48,5-13.14,2.71-18.64,4.83-11.42,3.46-16.79,6-10.56,4.54-15.61,7.86S85.6,67,80.8,71.22,73.16,77,68.72,82.61s7.15,4.5,14,4.32,16.1.08,23.47,0,15.85,0,23.47,0,15.74,0,23.47,0,15.7,0,23.47,0,15.69,0,23.47,0,15.7,0,23.48,0h46.25Z"/><path class="cls-2" d="M269.78,110.4c-11.75,0-23.45,0-35.21,0s-23.43.06-35.21,0-23.38.11-35.2,0-23.29.25-35.21,0-23.06.55-35.21,0-22.55,1.22-35.2,0-14.07,12.14-12.43,22.78c-12.85,3.22-32.9-6.37-42.63,5S7,165.07,22,160.8s26.84,8.76,24.16,23.47,1.33,32.67,0,46.94.57,30.29,5.57,42.06,9.76,19.15,19.49,27.46,18.49,13.18,31.55,16.08,31,1,45.56,1.38,32.76-.07,47.63,0,32.35.19,46.94,0,32.74,1.33,45.79-1.84,21.33-7.35,31-15.93,15.1-15.7,20-27.64,6.9-27.12,5.37-41.57,2.61-32.85,0-47.63,9.39-27.1,24.17-22.78,28-12,18.12-23-29.54-1.37-42.29-4.66c.61-7.36,1.79-23.09-8.28-22.78s-21.9-1-30.91.15-10.63,9.07-16.19,14.19-8.72,11.82-13.82,17.24-9.19,10.76-13.81,16.57-10.31,14.15-8.8,22.26,2.11,18.78-1.44,26.18-7.61,12.22-12.88,18.18-9.58,10.44-14.5,16.57-8.87,9.86-14.15,16.22-8.68,9.49-14.16,16.91-17-1.43-11.39-8.63,9.08-10.62,13.78-17.29,9.53-10.36,13.15-17.22,13.36-10,11.88-19.14-14.88-2.92-17.72,3.64-9.92,10.81-13.49,16.88-10.54,11.18-13.81,17.26-12.69,14-16.55,5.84,5.53-12.77,9.65-19,8.76-10.4,14-16.34,7.1-11.24,13.93-17.14-.19-17.09-7.6-11.05-8.07,10.34-14.15,16.23-8.17,11-14.38,16.68-6.6,10.73-14,16.41-14.43-8.49-7.9-14.11,8.1-11.13,13.43-17,8.45-11.72,13.49-17.57,8.74-11.5,13.46-17.6,8.59-10.62,15.31-15.07,18.13-4.73,26.13-4.93,14.08-6,19-11.41,9.63-11.25,14.11-17S265.3,116.14,269.78,110.4Z"/><path class="cls-2" d="M1022.61,64.24c-10.4-2.42-30.83-2.83-30,11s-.3,27.19,0,41,0,27.12,0,41,.44,25.8,0,40,1.09,26,0,41,13.39,16.13,27,14,8.61-20.19,9-32,0-27.7,0-40,.47-29,0-41,1.22-30.46,0-41S1034,66.9,1022.61,64.24Z"/><path class="cls-2" d="M1388.61,64.24c-11-2.55-30.54-2.2-30,12s-.06,26.85,0,41,.65,26.19,0,40,.8,24.91,0,39,1.19,24.94,0,40,9.64,17,25,16,12.4-16.69,12-30,.37-27.86,0-41,.59-29.46,0-42,1.22-30,0-41S1401.11,67.15,1388.61,64.24Z"/><path class="cls-2" d="M1129.61,66.24c-10.69-1-20.11.59-31,0s-19.55.53-31,0-10.49,11.47-10,21-.2,21,0,31,0,20.74,0,31,.09,20.54,0,31,.31,19.12,0,30,.7,19.29,0,31,10.41,10.85,20,11,20.25-.77,18-13,2.39-19,0-31,1.27-20.11,13-18,20.18-.72,30-1,15.81-3.09,23.77-6.23,11.45-7.86,17.48-13.52,8.81-11.6,11.82-19.18,3.8-18.21,3.26-26.4-2.57-17.43-6.56-24.44-7.79-12.06-14-17a68.57,68.57,0,0,0-19.68-11.32c-7.49-2.74-17.33-4.18-25.07-4.93m-34,92c.13-10.34-.18-24,0-34s-3.58-26.93,8-26,22-.06,32,2,14.85,8.24,18.31,16.7,3,20.71-2.08,28.53-11.58,11.93-21.45,12.55S1105.93,158,1095.61,158.24Z"/><path class="cls-2" d="M567.61,167.24c-3.23-9-8-18.14-12.23-26.77s-8.68-17.67-12.85-26.15-8.9-18-13-26S522,67.21,511.61,67.24s-28.3-3.77-30,9-.47,24.83-2,37-2,24.22-3,36-1.25,25.66-2.22,36.78-2.57,26.14-2.85,36.15-5.84,27.86,5.07,30.07,28.13,3,30.67-8.33.41-24.94,2.33-36.67.77-25.06,2-37,1-24.62,3-36c6.26,13.79,13.82,22.94,19.69,37.31s13.79,21.8,19.39,37.61S578,225,583.3,208.94s13.07-23.71,19-38,12.26-23.81,19.3-36.7c-.25,11,1.58,22.22,2,33s1.88,21.33,2,32,1.88,22.32,1.07,32.93,3.23,21,13.93,20.07,24.79,3.14,25-9-2-20.59-2-32-2.36-20.35-2.65-31.35-2.2-20.71-2.33-31.67-2.43-20.82-2-32-4.42-19.26-3-31-4.31-19.38-16-18-21.24-2.19-25.69,8.31S605.68,90.25,601.38,99s-7.07,14.87-11,23-7.31,15.18-11,23S572.55,161.3,567.61,167.24Z"/><path class="cls-3" d="M1095.61,158.24c10.32-.23,24.91.4,34.78-.22s16.38-4.73,21.45-12.55,5.53-20.08,2.08-28.53-8.32-14.64-18.31-16.7-20.42-1.07-32-2-7.82,16-8,26S1095.74,147.9,1095.61,158.24Z"/><path class="cls-2" d="M1295.28,234.57c-2.42,14.16,3.08,17.18,15.33,17.67s21.43-.85,20-14,.66-21.27,0-33,.38-23.22,0-34-2-19.4-5.69-28.3-7.85-12.16-15.06-18-15-8-24.18-9.82-21.86-2.57-31.4-1.26-17.12,2.7-25.44,7.56-10.06,10.55-15.92,18.08-4.57,19.84,5.67,19.71,20.69,7.77,24.09-2.95,9.88-13.4,19.93-14.07,19.09,1.17,25.75,8.25,7,16.54,7.25,25.75c-34.11-16.12-99.26-.54-93.78,44.78s72.62,42.33,92.78,13.22m-22-40c8.39.81,24.26,2.49,20.67,12.67s-7.28,15.86-16.9,20.1-21.88,2.64-30.84-1.7-10.22-17.23-3.18-24.32S1262.66,193.28,1272.61,194.24Z"/><path class="cls-2" d="M718.61,194.24c14.51.62,27.32-.83,42,0s26.7-1.59,42,0,11.88-18.63,9.33-29.33-6.29-20.15-13.08-28.92-14.73-13.08-24.56-17.44-26.43-5.56-37.62-4.24-20.25,6.63-28.84,13.16S693.92,141.36,689.39,151s-7.94,23.11-7.71,34.15,3,24.41,8,34a63.36,63.36,0,0,0,19.22,22.78c8.8,6.71,18.51,9.92,29.7,12.3s26.15.65,37-3,17.59-7.07,26.76-15.24,2-17.22-8-23.5-16.76,7.59-26.73,10.77-24.54,3.62-33.94-2.1-15.57-15.63-15.08-26.92m60-24c-19.5,2.32-40.08.34-60,1,1.11-15.67,12.77-28.9,29-30S778.29,153.74,778.61,170.24Z"/><path class="cls-2" d="M929.61,133.24c-6.59-8.49-13.6-15.66-25-18s-27.07-1.51-37.93,3.09-16.89,8.3-24.83,18.17-9.64,21.21,5.08,22.42,21.68,3.07,31.44-6.9,24.38-4.55,34.15-.69,16.47,16,16.08,25.92c-26.71-8-61.27-10.06-84.25,7.75s-16,56.06,10,65.47,58.64,6,76.22-17.22c-3.52,9.3,1.87,21,11,19s21.28,4.19,24-6-1.2-18.84,0-29-.59-19.67,0-30-.37-19.28,0-30-.38-17.24,0-29-11.32-8.09-21-9-17.12,2.42-15,14m-32,61c9.71.41,33.84,2.64,29.22,15.22S911.11,229,898.54,230.17s-30.1-1.49-30.93-16.93S885.21,193.71,897.61,194.24Z"/><path class="cls-3" d="M778.61,170.24c-.32-16.5-14.72-30.05-31-29s-27.91,14.31-29,30C738.53,170.58,759.11,172.56,778.61,170.24Z"/><path class="cls-3" d="M897.61,194.24c-12.4-.53-30.82,3.55-30,19s18.35,18.09,30.93,16.93,23.68-8.13,28.29-20.71S907.32,194.65,897.61,194.24Z"/><path class="cls-3" d="M1272.61,194.24c-9.95-1-23.2-.33-30.25,6.75s-5.79,20,3.18,24.32,21.22,5.94,30.84,1.7,13.31-9.92,16.9-20.1S1281,195.05,1272.61,194.24Z"/><path class="cls-4" d="M305,97.28c7.17,4.93,18.41,2.47,26.08.54s14.46-5.34,21-9.34S363.47,79.38,368,73.3a60.33,60.33,0,0,0,9.95-20.42c1.89-7.27,4.49-18.73,4.39-26s4.64-23.53-3.7-26-19.15,2.27-27.23,2.68-16.4,4.71-23.57,7.5S315.69,18.63,310,23.59s-9.24,11.34-12.65,17.72-6.21,17.43-6.86,24.21-3.19,22.62,3.41,25.6S305.14,80.8,310,77.44s9.61-11.77,14.84-15.54S335,49.67,340.88,49C331.14,66.41,316,80.79,305,97.28Z"/><path class="cls-5" d="M269.78,86.93c1.09-7.44-1.46-16.17,0-23.47s2.14-13.73-5.48-15.24-12.1-3.33-18.68-4.78-16.22.78-17.41-6.06-3-10.9-7.62-15.86-8.17-6.85-14.27-9.2-14.08-1.31-20.07.75-10,4.16-14.55,8.91-5.24,10.41-7,16.47-13.12,3.23-18.48,5-13.14,2.71-18.64,4.83-11.42,3.46-16.79,6-10.56,4.54-15.61,7.86S85.6,67,80.8,71.22,73.16,77,68.72,82.61s7.15,4.5,14,4.32,16.1.08,23.47,0,15.85,0,23.47,0,15.74,0,23.47,0,15.7,0,23.47,0,15.69,0,23.47,0,15.7,0,23.48,0h46.25Z"/><path class="cls-5" d="M269.78,110.4c-11.75,0-23.45,0-35.21,0s-23.43.06-35.21,0-23.38.11-35.2,0-23.29.25-35.21,0-23.06.55-35.21,0-22.55,1.22-35.2,0-14.07,12.14-12.43,22.78c-12.85,3.22-32.9-6.37-42.63,5S7,165.07,22,160.8s26.84,8.76,24.16,23.47,1.33,32.67,0,46.94.57,30.29,5.57,42.06,9.76,19.15,19.49,27.46,18.49,13.18,31.55,16.08,31,1,45.56,1.38,32.76-.07,47.63,0,32.35.19,46.94,0,32.74,1.33,45.79-1.84,21.33-7.35,31-15.93,15.1-15.7,20-27.64,6.9-27.12,5.37-41.57,2.61-32.85,0-47.63,9.39-27.1,24.17-22.78,28-12,18.12-23-29.54-1.37-42.29-4.66c.61-7.36,1.79-23.09-8.28-22.78s-21.9-1-30.91.15-10.63,9.07-16.19,14.19-8.72,11.82-13.82,17.24-9.19,10.76-13.81,16.57-10.31,14.15-8.8,22.26,2.11,18.78-1.44,26.18-7.61,12.22-12.88,18.18-9.58,10.44-14.5,16.57-8.87,9.86-14.15,16.22-8.68,9.49-14.16,16.91-17-1.43-11.39-8.63,9.08-10.62,13.78-17.29,9.53-10.36,13.15-17.22,13.36-10,11.88-19.14-14.88-2.92-17.72,3.64-9.92,10.81-13.49,16.88-10.54,11.18-13.81,17.26-12.69,14-16.55,5.84,5.53-12.77,9.65-19,8.76-10.4,14-16.34,7.1-11.24,13.93-17.14-.19-17.09-7.6-11.05-8.07,10.34-14.15,16.23-8.17,11-14.38,16.68-6.6,10.73-14,16.41-14.43-8.49-7.9-14.11,8.1-11.13,13.43-17,8.45-11.72,13.49-17.57,8.74-11.5,13.46-17.6,8.59-10.62,15.31-15.07,18.13-4.73,26.13-4.93,14.08-6,19-11.41,9.63-11.25,14.11-17S265.3,116.14,269.78,110.4Z"/><path class="cls-5" d="M1022.61,64.24c-10.4-2.42-30.83-2.83-30,11s-.3,27.19,0,41,0,27.12,0,41,.44,25.8,0,40,1.09,26,0,41,13.39,16.13,27,14,8.61-20.19,9-32,0-27.7,0-40,.47-29,0-41,1.22-30.46,0-41S1034,66.9,1022.61,64.24Z"/><path class="cls-5" d="M1388.61,64.24c-11-2.55-30.54-2.2-30,12s-.06,26.85,0,41,.65,26.19,0,40,.8,24.91,0,39,1.19,24.94,0,40,9.64,17,25,16,12.4-16.69,12-30,.37-27.86,0-41,.59-29.46,0-42,1.22-30,0-41S1401.11,67.15,1388.61,64.24Z"/><path class="cls-5" d="M1129.61,66.24c-10.69-1-20.11.59-31,0s-19.55.53-31,0-10.49,11.47-10,21-.2,21,0,31,0,20.74,0,31,.09,20.54,0,31,.31,19.12,0,30,.7,19.29,0,31,10.41,10.85,20,11,20.25-.77,18-13,2.39-19,0-31,1.27-20.11,13-18,20.18-.72,30-1,15.81-3.09,23.77-6.23,11.45-7.86,17.48-13.52,8.81-11.6,11.82-19.18,3.8-18.21,3.26-26.4-2.57-17.43-6.56-24.44-7.79-12.06-14-17a68.57,68.57,0,0,0-19.68-11.32c-7.49-2.74-17.33-4.18-25.07-4.93m-34,92c.13-10.34-.18-24,0-34s-3.58-26.93,8-26,22-.06,32,2,14.85,8.24,18.31,16.7,3,20.71-2.08,28.53-11.58,11.93-21.45,12.55S1105.93,158,1095.61,158.24Z"/><path class="cls-5" d="M567.61,167.24c-3.23-9-8-18.14-12.23-26.77s-8.68-17.67-12.85-26.15-8.9-18-13-26S522,67.21,511.61,67.24s-28.3-3.77-30,9-.47,24.83-2,37-2,24.22-3,36-1.25,25.66-2.22,36.78-2.57,26.14-2.85,36.15-5.84,27.86,5.07,30.07,28.13,3,30.67-8.33.41-24.94,2.33-36.67.77-25.06,2-37,1-24.62,3-36c6.26,13.79,13.82,22.94,19.69,37.31s13.79,21.8,19.39,37.61S578,225,583.3,208.94s13.07-23.71,19-38,12.26-23.81,19.3-36.7c-.25,11,1.58,22.22,2,33s1.88,21.33,2,32,1.88,22.32,1.07,32.93,3.23,21,13.93,20.07,24.79,3.14,25-9-2-20.59-2-32-2.36-20.35-2.65-31.35-2.2-20.71-2.33-31.67-2.43-20.82-2-32-4.42-19.26-3-31-4.31-19.38-16-18-21.24-2.19-25.69,8.31S605.68,90.25,601.38,99s-7.07,14.87-11,23-7.31,15.18-11,23S572.55,161.3,567.61,167.24Z"/><path class="cls-5" d="M1295.28,234.57c-2.42,14.16,3.08,17.18,15.33,17.67s21.43-.85,20-14,.66-21.27,0-33,.38-23.22,0-34-2-19.4-5.69-28.3-7.85-12.16-15.06-18-15-8-24.18-9.82-21.86-2.57-31.4-1.26-17.12,2.7-25.44,7.56-10.06,10.55-15.92,18.08-4.57,19.84,5.67,19.71,20.69,7.77,24.09-2.95,9.88-13.4,19.93-14.07,19.09,1.17,25.75,8.25,7,16.54,7.25,25.75c-34.11-16.12-99.26-.54-93.78,44.78s72.62,42.33,92.78,13.22m-22-40c8.39.81,24.26,2.49,20.67,12.67s-7.28,15.86-16.9,20.1-21.88,2.64-30.84-1.7-10.22-17.23-3.18-24.32S1262.66,193.28,1272.61,194.24Z"/><path class="cls-5" d="M718.61,194.24c14.51.62,27.32-.83,42,0s26.7-1.59,42,0,11.88-18.63,9.33-29.33-6.29-20.15-13.08-28.92-14.73-13.08-24.56-17.44-26.43-5.56-37.62-4.24-20.25,6.63-28.84,13.16S693.92,141.36,689.39,151s-7.94,23.11-7.71,34.15,3,24.41,8,34a63.36,63.36,0,0,0,19.22,22.78c8.8,6.71,18.51,9.92,29.7,12.3s26.15.65,37-3,17.59-7.07,26.76-15.24,2-17.22-8-23.5-16.76,7.59-26.73,10.77-24.54,3.62-33.94-2.1-15.57-15.63-15.08-26.92m60-24c-19.5,2.32-40.08.34-60,1,1.11-15.67,12.77-28.9,29-30S778.29,153.74,778.61,170.24Z"/><path class="cls-5" d="M929.61,133.24c-6.59-8.49-13.6-15.66-25-18s-27.07-1.51-37.93,3.09-16.89,8.3-24.83,18.17-9.64,21.21,5.08,22.42,21.68,3.07,31.44-6.9,24.38-4.55,34.15-.69,16.47,16,16.08,25.92c-26.71-8-61.27-10.06-84.25,7.75s-16,56.06,10,65.47,58.64,6,76.22-17.22c-3.52,9.3,1.87,21,11,19s21.28,4.19,24-6-1.2-18.84,0-29-.59-19.67,0-30-.37-19.28,0-30-.38-17.24,0-29-11.32-8.09-21-9-17.12,2.42-15,14m-32,61c9.71.41,33.84,2.64,29.22,15.22S911.11,229,898.54,230.17s-30.1-1.49-30.93-16.93S885.21,193.71,897.61,194.24Z"/></svg>